<svg width="128" height="128" viewBox="0 0 128 128" fill="none" xmlns="http://www.w3.org/2000/svg">
<rect width="128" height="128" fill="white"/>
<path d="M66.7219 56.8031C66.7375 57.7791 67.175 58.6231 67.9125 59.5562L68.0406 59.7187L66.6688 61.7187H68.5625L68.9563 60.0656L69.1563 60.0437C69.7406 59.9844 70.4375 59.725 71.0313 59.4219C71.2531 59.3062 71.4563 59.1875 71.6438 59.0687C71.5125 59.0687 71.4125 59.0728 71.2625 59.0687C70.5625 59.0497 69.7406 58.99 69.1563 58.7481C68.5188 58.4822 67.825 57.8797 67.2594 57.3403C67.0531 57.1431 66.875 56.9641 66.7219 56.8031ZM58.3416 56.8406C57.7356 58.3356 58.3263 60.4 59.0859 61.7187H59.7188C59.6938 61.6437 59.6813 61.5656 59.6813 61.4844C59.6813 61.0562 60.0344 60.7031 60.4625 60.7031C60.8906 60.7031 61.2438 61.0562 61.2438 61.4844C61.2438 61.5656 61.2313 61.6437 61.2063 61.7187H63.1031C62.6031 60.5562 61.7969 59.1344 60.5156 58.0637C60.675 58.6628 60.8969 59.2437 61.2594 59.8L60.7844 60.1062C60.2469 59.275 59.9938 58.4066 59.8188 57.5506C59.375 57.2653 58.8844 57.0228 58.3416 56.8406ZM60.4625 61.2656C60.3375 61.2656 60.2438 61.3594 60.2438 61.4844C60.2438 61.6094 60.3375 61.7031 60.4625 61.7031C60.5875 61.7031 60.6813 61.6094 60.6813 61.4844C60.6813 61.3594 60.5875 61.2656 60.4625 61.2656ZM58.7813 62.2812V63.2187H64.9219C64.975 63.0375 65.025 62.8531 65.0781 62.6687L65.6219 62.8187C65.5844 62.9531 65.5469 63.0844 65.5094 63.2187H69.2188V62.2812H58.7813ZM59.3375 63.7812L60.3219 69.0156C61.8156 68.4031 62.7781 67.5531 63.4688 66.5562C64.0469 65.7219 64.4313 64.775 64.7469 63.7812H59.3375ZM65.3406 63.7812C65.0063 64.8625 64.5906 65.9219 63.9281 66.8781C63.1656 67.975 62.0688 68.925 60.425 69.5781L60.7344 71.2187H67.2656L68.6625 63.7812H65.3406Z" fill="black"/>
<path d="M37 28L28 33.25V43.75L37 49L46 43.75V33.25L37 28ZM41.551 34.12L36.961 36.796L32.41 34.141L37 31.465L41.551 34.12ZM30.97 36.763L35.422 39.361V44.611L30.97 42.022V36.763ZM38.392 44.722V39.424L43.03 36.718V42.019L38.392 44.722ZM37 79L28 84.25V94.75L37 100L46 94.75V84.25L37 79ZM41.551 85.12L36.961 87.796L32.41 85.141L37 82.465L41.551 85.12ZM30.97 87.766L35.422 90.364V95.614L30.97 93.022V87.766ZM38.392 95.725V90.424L43.03 87.718V93.019L38.392 95.725ZM91 28L82 33.25V43.75L91 49L100 43.75V33.25L91 28ZM95.551 34.12L90.961 36.796L86.41 34.141L91 31.465L95.551 34.12ZM84.97 36.766L89.422 39.364V44.614L84.97 42.019V36.766ZM92.392 44.725V39.424L97.03 36.718V42.019L92.392 44.725ZM91 79L82 84.25V94.75L91 100L100 94.75V84.25L91 79ZM95.551 85.12L90.961 87.796L86.41 85.141L91 82.465L95.551 85.12ZM84.97 87.766L89.422 90.364V95.614L84.97 93.019V87.766ZM92.392 95.725V90.424L97.03 87.718V93.019L92.392 95.725ZM55 37H73V40H55V37ZM55 88H73V91H55V88ZM38.5 55V73H35.5V55H38.5ZM49.879 54.484L43.516 48.121L45.637 46L52 52.36L49.879 54.484ZM76 52.879L82.363 46.516L84.484 48.637L78.121 55L76 52.879ZM52.384 72.637L46.021 79L43.9 76.879L50.263 70.516L52.384 72.637ZM78.637 70.387L85 76.75L82.879 78.871L76.516 72.508L78.637 70.387ZM92.5 55V73H89.5V55H92.5Z" fill="black"/>
</svg>
